<svg width="1484" height="2097" viewBox="0 0 1484 2097" fill="none" xmlns="http://www.w3.org/2000/svg">
<path d="M27.6501 470.955H0V868.196H543.779C594.47 868.196 612.903 929.625 566.82 950.101L460.83 995.149C317.973 1056.58 175.116 1089.34 27.6501 1089.34H0V1486.58H529.954C580.645 1486.58 599.079 1548.01 552.996 1568.49L442.397 1613.53C308.756 1670.87 165.899 1699.53 27.6501 1699.53H0V2096.77H529.954L589.861 2031.25C847.926 1765.06 1147.47 1625.82 1460.83 1625.82H1483.87V1228.58H953.917C903.225 1228.58 884.792 1167.15 930.875 1146.67L1041.48 1101.63C1175.12 1044.29 1317.97 1015.62 1456.22 1015.62H1479.26V618.385H940.092C889.401 618.385 870.968 556.956 917.051 536.479L1023.04 491.431C1165.9 430.002 1308.76 397.241 1456.22 397.241H1479.26V0H949.31L889.401 65.5244C640.553 331.716 336.406 470.955 27.6501 470.955Z" fill="#EC4899"/>
</svg>
